<?xml version="1.0" encoding="UTF-8"?>
<!DOCTYPE svg PUBLIC "-//W3C//DTD SVG 1.1//EN" "http://www.w3.org/Graphics/SVG/1.1/DTD/svg11.dtd">
<svg xmlns="http://www.w3.org/2000/svg" version="1.1" width="800px" height="800px" style="shape-rendering:geometricPrecision; text-rendering:geometricPrecision; image-rendering:optimizeQuality; fill-rule:evenodd; clip-rule:evenodd" xmlns:xlink="http://www.w3.org/1999/xlink">
<g><path style="opacity:1" fill="#ec1b2e" d="M -0.5,-0.5 C 266.167,-0.5 532.833,-0.5 799.5,-0.5C 799.5,266.167 799.5,532.833 799.5,799.5C 532.833,799.5 266.167,799.5 -0.5,799.5C -0.5,532.833 -0.5,266.167 -0.5,-0.5 Z"/></g>
<g><path style="opacity:1" fill="#fffdfd" d="M 503.5,277.5 C 510.445,275.775 515.278,278.108 518,284.5C 523.963,332.766 528.963,381.099 533,429.5C 527.842,440.782 519.342,444.282 507.5,440C 503.61,437.404 500.777,433.904 499,429.5C 498.333,380.5 498.333,331.5 499,282.5C 500.366,280.638 501.866,278.972 503.5,277.5 Z"/></g>
<g><path style="opacity:1" fill="#fffefe" d="M 122.5,280.5 C 168.835,280.333 215.168,280.5 261.5,281C 267.172,283.768 269.006,288.268 267,294.5C 265.74,297.428 263.573,299.261 260.5,300C 218.231,305.49 175.897,310.323 133.5,314.5C 133.986,323.847 134.653,333.181 135.5,342.5C 167.835,342.333 200.168,342.5 232.5,343C 233.667,344.167 234.833,345.333 236,346.5C 236.667,350.167 236.667,353.833 236,357.5C 234.786,359.049 233.286,360.215 231.5,361C 201.146,364.798 170.812,368.632 140.5,372.5C 140.167,373.333 139.833,374.167 139.5,375C 140.962,388.531 142.629,402.031 144.5,415.5C 180.195,411.793 215.861,407.793 251.5,403.5C 265.784,406.665 270.617,415.332 266,429.5C 263.685,433.817 260.185,436.65 255.5,438C 210.833,438.667 166.167,438.667 121.5,438C 116.667,435.833 113.167,432.333 111,427.5C 110.333,382.167 110.333,336.833 111,291.5C 113.412,286.252 117.246,282.586 122.5,280.5 Z"/></g>
<g><path style="opacity:1" fill="#fffdfd" d="M 308.5,418.5 C 309.833,401.68 310.5,384.513 310.5,367C 310.5,349.663 310.167,332.497 309.5,315.5C 297.532,311.913 293.032,303.913 296,291.5C 298.232,286.269 302.065,282.769 307.5,281C 351.833,280.333 396.167,280.333 440.5,281C 445.935,282.769 449.768,286.269 452,291.5C 452.667,336.5 452.667,381.5 452,426.5C 450.167,432.333 446.333,436.167 440.5,438C 393.833,438.667 347.167,438.667 300.5,438C 298.333,437.167 296.833,435.667 296,433.5C 293.801,423.199 297.967,418.199 308.5,418.5 Z"/></g>
<g><path style="opacity:1" fill="#fffdfd" d="M 564.5,280.5 C 611.168,280.333 657.835,280.5 704.5,281C 710.859,285.299 712.025,290.799 708,297.5C 706.745,298.211 705.579,299.044 704.5,300C 685.804,302.004 667.138,304.17 648.5,306.5C 648.667,349.835 648.5,393.168 648,436.5C 647.167,438.667 645.667,440.167 643.5,441C 640.5,441.667 637.5,441.667 634.5,441C 632.333,440.167 630.833,438.667 630,436.5C 624.657,394.558 619.823,352.558 615.5,310.5C 600.629,311.804 585.795,313.47 571,315.5C 559.359,315.527 553.193,309.694 552.5,298C 553.185,289.77 557.185,283.937 564.5,280.5 Z"/></g>
<g><path style="opacity:1" fill="#ec2332" d="M 347.5,307.5 C 388.644,309.469 416.811,329.469 432,367.5C 434.749,376.993 436.083,386.66 436,396.5C 432.797,401.916 428.464,402.916 423,399.5C 422.327,366.296 407.16,342.463 377.5,328C 366.745,324.37 355.745,322.037 344.5,321C 341.127,315.391 342.127,310.891 347.5,307.5 Z"/></g>
<g><path style="opacity:1" fill="#f15462" d="M 309.5,315.5 C 310.167,332.497 310.5,349.663 310.5,367C 310.5,384.513 309.833,401.68 308.5,418.5C 309.493,384.24 309.826,349.906 309.5,315.5 Z"/></g>
<g><path style="opacity:1" fill="#ec2232" d="M 344.5,336.5 C 376.012,336.997 396.178,352.331 405,382.5C 406.162,387.125 406.496,391.792 406,396.5C 402.957,402.792 398.79,403.792 393.5,399.5C 392.65,385.568 387.65,373.402 378.5,363C 374.844,359.837 370.844,357.171 366.5,355C 358.341,352.572 350.174,350.405 342,348.5C 339.511,343.757 340.345,339.757 344.5,336.5 Z"/></g>
<g><path style="opacity:1" fill="#ec2432" d="M 341.5,363.5 C 365.507,365.004 377.674,377.671 378,401.5C 377.535,402.931 376.701,404.097 375.5,405C 371.409,406.227 367.909,405.394 365,402.5C 364.305,387.472 356.472,379.306 341.5,378C 334.868,373.086 334.868,368.253 341.5,363.5 Z"/></g>
<g><path style="opacity:1" fill="#ec2332" d="M 335.5,390.5 C 350.98,390.127 356.147,397.127 351,411.5C 341.317,419.274 333.65,417.607 328,406.5C 327.005,399.492 329.505,394.158 335.5,390.5 Z"/></g>
<g><path style="opacity:1" fill="#fff5f5" d="M 111.5,485.5 C 119.507,485.334 127.507,485.5 135.5,486C 143.093,490.39 144.427,496.223 139.5,503.5C 143.805,509.521 143.138,515.021 137.5,520C 128.942,521.441 120.276,521.941 111.5,521.5C 111.5,509.5 111.5,497.5 111.5,485.5 Z"/></g>
<g><path style="opacity:1" fill="#ffeff0" d="M 161.5,485.5 C 164.187,485.336 166.854,485.503 169.5,486C 172.621,489.743 175.621,493.576 178.5,497.5C 181.991,493.84 185.324,490.006 188.5,486C 191.167,485.333 193.833,485.333 196.5,486C 192,491.833 187.5,497.667 183,503.5C 182.501,509.491 182.334,515.491 182.5,521.5C 180.167,521.5 177.833,521.5 175.5,521.5C 175.666,515.491 175.499,509.491 175,503.5C 170.239,497.619 165.739,491.619 161.5,485.5 Z"/></g>
<g><path style="opacity:1" fill="#fff6f7" d="M 262.5,485.5 C 269.325,484.439 275.325,486.106 280.5,490.5C 278.255,495.283 275.255,495.783 271.5,492C 257.425,491.967 253.258,498.467 259,511.5C 261.385,513.776 264.219,515.109 267.5,515.5C 270.996,514.712 274.329,513.879 277.5,513C 281.409,516.199 280.742,518.532 275.5,520C 263.065,523.699 254.565,519.532 250,507.5C 248.914,497.106 253.081,489.772 262.5,485.5 Z"/></g>
<g><path style="opacity:1" fill="#fff6f7" d="M 311.5,485.5 C 321.959,483.703 329.793,487.369 335,496.5C 337.679,507.82 333.846,515.987 323.5,521C 306.855,522.688 299.021,515.188 300,498.5C 302.3,492.706 306.133,488.373 311.5,485.5 Z"/></g>
<g><path style="opacity:1" fill="#f68d97" d="M 394.5,486.5 C 394.56,485.957 394.893,485.624 395.5,485.5C 396.825,497.66 396.825,509.66 395.5,521.5C 395.828,509.655 395.495,497.988 394.5,486.5 Z"/></g>
<g><path style="opacity:1" fill="#fefffe" d="M 419.5,485.5 C 429.5,485.5 439.5,485.5 449.5,485.5C 449.5,487.5 449.5,489.5 449.5,491.5C 445.5,491.5 441.5,491.5 437.5,491.5C 437.5,501.5 437.5,511.5 437.5,521.5C 435.5,521.5 433.5,521.5 431.5,521.5C 431.5,511.5 431.5,501.5 431.5,491.5C 427.5,491.5 423.5,491.5 419.5,491.5C 419.5,489.5 419.5,487.5 419.5,485.5 Z"/></g>
<g><path style="opacity:1" fill="#fffcfc" d="M 473.5,485.5 C 480.841,485.334 488.174,485.5 495.5,486C 503.94,490.454 505.774,496.954 501,505.5C 499.59,506.787 498.09,507.954 496.5,509C 499.086,512.836 501.419,516.836 503.5,521C 501.167,521.667 498.833,521.667 496.5,521C 494.167,517.333 491.833,513.667 489.5,510C 486.183,509.502 482.85,509.335 479.5,509.5C 479.5,513.5 479.5,517.5 479.5,521.5C 477.5,521.5 475.5,521.5 473.5,521.5C 473.5,509.5 473.5,497.5 473.5,485.5 Z"/></g>
<g><path style="opacity:1" fill="#fefbfb" d="M 587.5,485.5 C 592.844,485.334 598.177,485.501 603.5,486C 615.229,490.291 619.396,498.458 616,510.5C 613.668,516.164 609.501,519.664 603.5,521C 598.177,521.499 592.844,521.666 587.5,521.5C 587.5,509.5 587.5,497.5 587.5,485.5 Z"/></g>
<g><path style="opacity:1" fill="#fff4f5" d="M 640.5,485.5 C 648.833,485.5 657.167,485.5 665.5,485.5C 665.5,487.5 665.5,489.5 665.5,491.5C 659.5,491.5 653.5,491.5 647.5,491.5C 647.5,494.5 647.5,497.5 647.5,500.5C 653.5,500.5 659.5,500.5 665.5,500.5C 665.5,502.5 665.5,504.5 665.5,506.5C 659.5,506.5 653.5,506.5 647.5,506.5C 647.5,509.5 647.5,512.5 647.5,515.5C 653.5,515.5 659.5,515.5 665.5,515.5C 665.5,517.5 665.5,519.5 665.5,521.5C 657.167,521.5 648.833,521.5 640.5,521.5C 640.5,509.5 640.5,497.5 640.5,485.5 Z"/></g>
<g><path style="opacity:1" fill="#fefbfb" d="M 394.5,486.5 C 395.495,497.988 395.828,509.655 395.5,521.5C 393.5,521.5 391.5,521.5 389.5,521.5C 389.666,514.492 389.5,507.492 389,500.5C 385.318,504.349 381.485,508.016 377.5,511.5C 373.515,508.016 369.682,504.349 366,500.5C 365.5,507.492 365.334,514.492 365.5,521.5C 363.5,521.5 361.5,521.5 359.5,521.5C 359.333,509.495 359.5,497.495 360,485.5C 365.681,491.348 371.515,497.015 377.5,502.5C 383.187,497.145 388.854,491.812 394.5,486.5 Z"/></g>
<g><path style="opacity:1" fill="#fff8f9" d="M 544.5,486.5 C 545.376,486.369 546.043,486.702 546.5,487.5C 552.039,498.745 557.706,509.911 563.5,521C 558.333,522.804 554.999,521.137 553.5,516C 548.167,515.333 542.833,515.333 537.5,516C 535.673,520.832 532.339,522.332 527.5,520.5C 533.18,509.14 538.847,497.807 544.5,486.5 Z"/></g>
<g><path style="opacity:1" fill="#ec2433" d="M 118.5,491.5 C 123.511,491.334 128.511,491.501 133.5,492C 136.167,494.667 136.167,497.333 133.5,500C 128.511,500.499 123.511,500.666 118.5,500.5C 118.5,497.5 118.5,494.5 118.5,491.5 Z"/></g>
<g><path style="opacity:1" fill="#ec2131" d="M 314.5,491.5 C 326.506,491.995 331.006,497.995 328,509.5C 320.507,517.746 313.507,517.412 307,508.5C 304.66,500.525 307.16,494.858 314.5,491.5 Z"/></g>
<g><path style="opacity:1" fill="#ec2131" d="M 480.5,491.5 C 485.628,491.112 490.628,491.612 495.5,493C 497.396,494.808 497.896,496.975 497,499.5C 496.578,501.426 495.411,502.426 493.5,502.5C 489.167,502.5 484.833,502.5 480.5,502.5C 480.5,498.833 480.5,495.167 480.5,491.5 Z"/></g>
<g><path style="opacity:1" fill="#ec2332" d="M 593.5,491.5 C 607.939,490.744 613.106,497.078 609,510.5C 604.693,514.658 599.526,516.324 593.5,515.5C 593.5,507.5 593.5,499.5 593.5,491.5 Z"/></g>
<g><path style="opacity:1" fill="#ee3640" d="M 544.5,500.5 C 546.945,502.672 548.945,505.338 550.5,508.5C 547.167,509.833 543.833,509.833 540.5,508.5C 541.847,505.807 543.18,503.14 544.5,500.5 Z"/></g>
<g><path style="opacity:1" fill="#f15764" d="M 480.5,491.5 C 480.5,495.167 480.5,498.833 480.5,502.5C 484.833,502.5 489.167,502.5 493.5,502.5C 489.03,503.486 484.363,503.819 479.5,503.5C 479.183,499.298 479.517,495.298 480.5,491.5 Z"/></g>
<g><path style="opacity:1" fill="#ec2533" d="M 118.5,506.5 C 123.511,506.334 128.511,506.501 133.5,507C 136.167,509.667 136.167,512.333 133.5,515C 128.511,515.499 123.511,515.666 118.5,515.5C 118.5,512.5 118.5,509.5 118.5,506.5 Z"/></g>
</svg>
